{"title":"Keane Live @ O2 Arena,  London 2007","uid":8394699,"size":2096827438,"categoryP":"video","categoryS":"music_videos","magnet":"?xt=urn:btih:120e391a2b7b5c53cea32c00c1c2ddf397cede28&amp;dn=Keane+Live+%40+O2+Arena%2C++London+2007&amp;tr=udp%3A%2F%2Ftracker.openbittorrent.com%3A80&amp;tr=udp%3A%2F%2Fopen.demonii.com%3A1337&amp;tr=udp%3A%2F%2Ftracker.coppersurfer.tk%3A6969&amp;tr=udp%3A%2F%2Fexodus.desync.com%3A6969","seeders":1,"leechers":0,"uploader":"Filmofiel","files":1,"time":1366536372,"description":"Keane Live @ The O2 Arena , London 2007\n &lt;a href=&quot;\nhttp://en.wikipedia.org/wiki/Keane_Live&quot; rel=&quot;nofollow&quot; target=&quot;_NEW&quot;&gt;\nhttp://en.wikipedia.org/wiki/Keane_Live&lt;/a&gt;\n\nVideo Info: \n\nFormat                                   : AVI\nFormat/Info                              : Audio Video Interleave\nFormat profile                           : OpenDML\nFile size                                : 1.95 GiB\nDuration                                 : 1h 35mn\nOverall bit rate                         : 2 929 Kbps\nMovie name                               : Keane - Live.Title1.Angle1.DVDRip\nWriting application                      : Lavf53.21.0\nOriginal source form/Name                : Keane - Live\n\nVideo\nID                                       : 0\nFormat                                   : MPEG-4 Visual\nFormat profile                           : Advanced Simple@L5\nFormat settings, BVOP                    : 2\nFormat settings, QPel                    : No\nFormat settings, GMC                     : No warppoints\nFormat settings, Matrix                  : Default (H.263)\nMuxing mode                              : Packed bitstream\nCodec ID                                 : XVID\nCodec ID/Hint                            : XviD\nDuration                                 : 1h 35mn\nBit rate                                 : 2 469 Kbps\nWidth                                    : 720 pixels\nHeight                                   : 406 pixels\nDisplay aspect ratio                     : 16:9\nFrame rate                               : 29.970 fps\nColor space                              : YUV\nChroma subsampling                       : 4:2:0\nBit depth                                : 8 bits\nScan type                                : Progressive\nCompression mode                         : Lossy\nBits/(Pixel*Frame)                       : 0.282\nStream size                              : 1.65 GiB (84%)\nWriting library                          : XviD 1.2.1 (UTC 2008-12-04)\n\nAudio\nID                                       : 1\nFormat                                   : AC-3\nFormat/Info                              : Audio Coding 3\nMode extension                           : CM (complete main)\nFormat settings, Endianness              : Big\nCodec ID                                 : 2000\nDuration                                 : 1h 35mn\nBit rate mode                            : Constant\nBit rate                                 : 448 Kbps\nChannel(s)                               : 6 channels\nChannel positions                        : Front: L C R, Side: L R, LFE\nSampling rate                            : 48.0 KHz\nBit depth                                : 16 bits\nCompression mode                         : Lossy\nStream size                              : 306 MiB (15%)\nAlignment                                : Aligned on interleaves\nInterleave, duration                     : 32 ms (0.96 video frame)\n\nHave fun.","torrent":{"xt":"urn:btih:120e391a2b7b5c53cea32c00c1c2ddf397cede28","amp;dn":"Keane+Live+%40+O2+Arena%2C++London+2007","amp;tr":["udp%3A%2F%2Ftracker.openbittorrent.com%3A80","udp%3A%2F%2Fopen.demonii.com%3A1337","udp%3A%2F%2Ftracker.coppersurfer.tk%3A6969","udp%3A%2F%2Fexodus.desync.com%3A6969"],"infoHash":"120e391a2b7b5c53cea32c00c1c2ddf397cede28","infoHashBuffer":{"type":"Buffer","data":[18,14,57,26,43,123,92,83,206,163,44,0,193,194,221,243,151,206,222,40]},"announce":[],"urlList":[]}}